HIERARCHY
ROOT Hips
{
	OFFSET 0.000000 88.474243 0.000000
	CHANNELS 6 Xposition Yposition Zposition Zrotation Yrotation Xrotation 
	JOINT Hips_Spine
	{
		OFFSET 0.000000 0.000000 0.000000
		CHANNELS 3 Zrotation Yrotation Xrotation
		JOINT Spine
		{
			OFFSET 0.005100 8.711998 -0.691000
			CHANNELS 3 Zrotation Yrotation Xrotation
			JOINT Spine1
			{
				OFFSET -0.009200 8.660301 -1.275000
				CHANNELS 3 Zrotation Yrotation Xrotation
				JOINT Spine2
				{
					OFFSET 0.006300 9.852501 -1.857000
					CHANNELS 3 Zrotation Yrotation Xrotation
					JOINT Spine2_Neck
					{
						OFFSET 0.000000 0.000000 0.000000
						CHANNELS 3 Zrotation Yrotation Xrotation
						JOINT Neck
						{
							OFFSET 0.016300 11.420799 -0.263300
							CHANNELS 3 Zrotation Yrotation Xrotation
							End Site #name: Head
							{
								OFFSET -0.019200 9.262405 2.362500
							}
						}
					}
					JOINT Spine2_LeftShoulder
					{
						OFFSET 0.000000 0.000000 0.000000
						CHANNELS 3 Zrotation Yrotation Xrotation
						JOINT LeftShoulder
						{
							OFFSET 5.616900 6.732201 -0.345700
							CHANNELS 3 Zrotation Yrotation Xrotation
							JOINT LeftArm
							{
								OFFSET 10.664888 -0.183372 -2.440700
								CHANNELS 3 Zrotation Yrotation Xrotation
								JOINT LeftForeArm
								{
									OFFSET 27.459126 0.000000 0.000000
									CHANNELS 3 Zrotation Yrotation Xrotation
									End Site #name: LeftHand
									{
										OFFSET 21.306858 0.000000 0.000000
									}
								}
							}
						}
					}
					JOINT Spine2_RightShoulder
					{
						OFFSET 0.000000 0.000000 0.000000
						CHANNELS 3 Zrotation Yrotation Xrotation
						JOINT RightShoulder
						{
							OFFSET -5.580300 6.737503 -0.344400
							CHANNELS 3 Zrotation Yrotation Xrotation
							JOINT RightArm
							{
								OFFSET -10.679335 -0.188484 -2.383900
								CHANNELS 3 Zrotation Yrotation Xrotation
								JOINT RightForeArm
								{
									OFFSET -27.503529 0.000000 0.000000
									CHANNELS 3 Zrotation Yrotation Xrotation
									End Site #name: RightHand
									{
										OFFSET -21.306808 0.000000 0.000000
									}
								}
							}
						}
					}
				}
			}
		}
	}
	JOINT Hips_LeftUpLeg
	{
		OFFSET 0.000000 0.000000 0.000000
		CHANNELS 3 Zrotation Yrotation Xrotation
		JOINT LeftUpLeg
		{
			OFFSET 6.857700 -6.739601 0.312100
			CHANNELS 3 Zrotation Yrotation Xrotation
			JOINT LeftLeg
			{
				OFFSET -0.367590 -34.731552 -4.572400
				CHANNELS 3 Zrotation Yrotation Xrotation
				End Site #name: LeftFoot
				{
					OFFSET 0.367590 -34.656704 -6.067400
				}
			}
		}
	}
	JOINT Hips_RightUpLeg
	{
		OFFSET 0.000000 0.000000 0.000000
		CHANNELS 3 Zrotation Yrotation Xrotation
		JOINT RightUpLeg
		{
			OFFSET -6.876100 -6.733299 0.301000
			CHANNELS 3 Zrotation Yrotation Xrotation
			JOINT RightLeg
			{
				OFFSET 0.347353 -34.795158 -4.515900
				CHANNELS 3 Zrotation Yrotation Xrotation
				End Site #name: RightFoot
				{
					OFFSET -0.347353 -34.589367 -6.070300
				}
			}
		}
	}
}
MOTION
Frames: 9
Frame Time: 0.041667
0.176108 0.048731 -0.021783 1.087120 15.333817 -6.067088 -0.000000 0.000000 0.000000 0.370200 -1.375197 -0.020031 -0.202440 -1.271549 -1.601283 0.000000 0.000000 0.000000 -0.570402 -0.967188 -1.866041 5.238413 1.377727 -7.061537 -0.165200 -1.753009 -2.844516 -17.415729 -7.561761 2.011262 -44.445714 -1.945122 9.377824 -0.333912 -32.185591 6.202495 -0.398075 -1.132334 -0.669216 12.279295 11.314585 4.825535 57.466255 -4.378576 -3.581424 -0.325919 50.763411 0.676389 0.000000 0.000000 0.000000 -10.823549 18.369118 -5.208175 -1.602813 -1.758994 22.534800 0.000000 0.000000 0.000000 -4.799581 15.416160 -8.975914 7.296948 0.889498 -2.320066 
0.726938 -0.021567 0.123877 3.072110 15.558152 -6.455429 -0.000000 0.000000 0.000000 -1.779661 -2.477700 -1.084938 0.013137 -1.253232 -1.749867 0.000000 0.000000 0.000000 -0.521113 -0.886246 -2.852694 5.923815 -0.529449 -5.925921 -0.809039 -1.461286 -3.761877 -23.149221 -4.017118 0.181991 -41.301201 -2.121295 -1.652056 -0.583063 -24.876864 3.542139 -0.518546 -1.339947 -1.057939 13.196108 8.530910 2.055345 59.457612 0.539526 -5.717001 -0.329781 52.764530 -0.792537 0.000000 0.000000 -0.000000 -14.035378 15.866115 -2.380934 -0.644446 1.805983 20.595462 0.000000 0.000000 0.000000 -8.912665 17.378613 -9.398409 7.481198 0.635875 -0.431872 
1.032065 -0.060831 0.158512 4.453489 14.205055 -6.815933 -0.000000 0.000000 -0.000000 -3.115912 -3.920316 -0.945422 -0.006670 -1.065427 -1.649809 0.000000 0.000000 0.000000 0.122310 -1.302194 -2.776030 5.208386 -1.422127 -6.203946 -0.956230 -1.422469 -3.309805 -26.846583 -3.057236 1.318674 -41.069813 3.558870 -7.079774 -1.094523 -24.799228 3.804382 -0.300390 -1.335024 -0.922831 12.240922 8.163476 2.018406 58.809854 2.781655 -3.795545 -0.028232 49.399503 -0.637716 0.000000 0.000000 -0.000000 -16.056169 15.405659 -0.468923 -1.201352 2.210515 19.068080 0.000000 0.000000 0.000000 -11.173766 18.399185 -12.253743 6.579308 -1.094319 5.325679 
1.286894 -0.098597 0.111938 5.174518 12.529738 -6.751531 -0.000000 0.000000 -0.000000 -4.551401 -3.636141 0.176589 -0.003700 -1.025787 -1.389358 0.000000 0.000000 0.000000 0.318255 -1.426751 -2.463684 4.909895 -3.467403 -4.757751 -0.810530 -1.461607 -2.942855 -28.166079 -2.949057 2.612507 -39.806323 4.760552 -5.774879 -0.588310 -23.299427 6.019550 -0.124888 -1.321329 -0.687491 11.171713 8.086982 2.029124 58.746041 5.644217 -1.956504 0.124067 51.681584 -0.597380 0.000000 0.000000 -0.000000 -17.197468 15.489110 -0.038943 -1.369574 2.663685 18.557707 0.000000 0.000000 0.000000 -12.760604 17.753534 -15.102251 5.840072 -1.287834 11.794479 
1.590960 -0.114993 0.051327 5.431757 11.815107 -6.483208 -0.000000 0.000000 -0.000000 -5.527074 -3.142340 0.498222 -0.112715 -0.983080 -1.241115 0.000000 0.000000 0.000000 0.117556 -1.516118 -2.440297 4.524486 -4.668398 -3.471403 -0.819001 -1.568191 -2.714728 -30.077417 -2.224968 3.576486 -37.212929 4.926893 -5.350820 0.010792 -19.555632 7.891603 -0.153635 -1.311002 -0.549161 9.414512 7.900440 1.751336 59.479082 6.680620 -2.118086 0.176338 54.273888 -0.718165 0.000000 0.000000 -0.000000 -17.922429 15.673404 -0.062999 -1.542161 2.741945 18.413805 0.000000 0.000000 0.000000 -14.037651 16.602072 -17.015882 5.609432 -0.912806 16.475892 
1.932563 -0.120751 -0.009632 5.498474 11.372059 -6.319066 -0.000000 0.000000 -0.000000 -5.723519 -2.898661 -0.027632 -0.288589 -0.938959 -1.215506 0.000000 0.000000 0.000000 -0.240298 -1.575904 -2.509175 4.376789 -5.097740 -3.100787 -1.007687 -1.642905 -2.706418 -32.024520 -1.560002 4.095631 -35.264846 4.896973 -4.787626 0.506736 -15.478076 9.166970 -0.342611 -1.391530 -0.629841 7.687004 7.914898 1.648572 61.066327 6.184453 -3.407375 0.294821 54.375893 -0.755158 0.000000 0.000000 -0.000000 -18.307051 15.899892 -0.144548 -1.603517 2.812433 18.345137 0.000000 0.000000 0.000000 -14.912017 15.557641 -17.797233 5.688353 0.015791 19.293709 
2.289219 -0.117528 -0.069033 5.426554 11.513038 -6.229750 -0.000000 0.000000 -0.000000 -5.349483 -2.711665 -0.768537 -0.512350 -0.860027 -1.354474 0.000000 0.000000 0.000000 -0.544071 -1.582124 -2.591189 4.208377 -5.148552 -2.856699 -1.257360 -1.655844 -2.856985 -33.834757 -0.802907 4.281390 -33.480570 4.789692 -4.353992 0.923281 -11.369325 9.756041 -0.636128 -1.409401 -0.764345 6.562065 7.932483 1.547976 62.768682 4.937358 -5.905837 0.444194 52.790237 -0.720095 0.000000 0.000000 -0.000000 -18.499948 16.009956 -0.374447 -1.587773 2.978492 18.345336 0.000000 0.000000 0.000000 -15.486692 14.730539 -17.937724 5.762589 0.863411 20.759507 
2.635417 -0.104273 -0.122130 5.236407 12.186245 -6.138379 -0.000000 0.000000 -0.000000 -5.036721 -2.449800 -1.491250 -0.717101 -0.748764 -1.544151 0.000000 0.000000 0.000000 -0.782777 -1.548186 -2.696613 4.013612 -5.068719 -2.596499 -1.484624 -1.629799 -3.031073 -35.301474 -0.108456 4.171819 -32.311868 4.473101 -4.130575 1.138678 -8.412024 9.713011 -0.932237 -1.344438 -0.866110 6.010500 7.948146 1.517878 65.030431 4.021660 -7.485975 0.634987 50.474778 -0.651715 0.000000 0.000000 -0.000000 -18.526225 16.046409 -0.684601 -1.468452 3.186321 18.397656 0.000000 0.000000 0.000000 -15.830010 13.748722 -17.711174 5.608173 1.303545 21.392240 
2.943919 -0.078137 -0.163652 4.916612 13.266459 -6.025491 -0.000000 0.000000 -0.000000 -5.047822 -2.082613 -1.859904 -0.876024 -0.604329 -1.693279 0.000000 0.000000 0.000000 -0.989133 -1.471442 -2.807079 3.823534 -4.897548 -2.356595 -1.658345 -1.564188 -3.199022 -36.162191 0.308590 4.061228 -31.670187 4.355028 -4.159813 1.165270 -7.000552 9.410435 -1.240076 -1.207057 -0.946040 5.718626 7.946061 1.509248 67.137976 3.418636 -7.942989 0.811850 47.766427 -0.566395 0.000000 0.000000 -0.000000 -18.397147 15.954052 -1.122844 -1.231025 3.415173 18.561315 0.000000 0.000000 0.000000 -15.997813 12.454722 -17.230839 5.272642 1.347959 21.396999 
